<svg xmlns="http://www.w3.org/2000/svg" width="20" height="20" viewBox="0 0 20 20"><path d="M13,23A10,10,0,1,1,23,13,10,10,0,0,1,13,23Zm4.585-12.916a.482.482,0,0,0,0-.681L16.564,8.382a.482.482,0,0,0-.681,0L12.99,11.275,10.1,8.382a.482.482,0,0,0-.681,0L8.395,9.4a.482.482,0,0,0,0,.681l2.894,2.894L8.395,15.87a.482.482,0,0,0,0,.681l1.022,1.022a.482.482,0,0,0,.681,0l2.893-2.894,2.893,2.894a.482.482,0,0,0,.681,0l1.022-1.022a.482.482,0,0,0,0-.681l-2.894-2.892,2.894-2.894Z" transform="translate(-3 -3)" fill="#cbcbcb"/></svg>