<svg xmlns="http://www.w3.org/2000/svg" width="30" height="20" viewBox="0 0 32 22.4"><path d="M28.8,4.8H3.2A3.208,3.208,0,0,0,0,8V24a3.208,3.208,0,0,0,3.2,3.2H28.8A3.209,3.209,0,0,0,32,24V8A3.209,3.209,0,0,0,28.8,4.8Zm0,19.2H3.2V14.4H28.8Zm0-14.4H3.2V8H28.8ZM6.4,17.76v.96h.96v-.96Zm5.76,1.918v.962h1.92v-.962h.96v-.96H16v-.96H14.08v.96h-.962v.96ZM16,20.64v-.962h-.962v.962Zm-4.8,0v-.962H9.28v.962Zm.96-1.922h.96v-.96H11.2v1.918h.96Zm-3.842.96H9.28v-.96h.96v-.96H8.32v.96H7.36v.96H6.4v.962H8.318Z" transform="translate(0 -4.8)" fill="#cbcbcb"/></svg>