<svg xmlns="http://www.w3.org/2000/svg" width="7.778" height="10" viewBox="0 0 7.778 10"><path d="M11.911,5.489h-1V4.156c0-1.609-.742-2.556-2.222-2.556s-2.222.946-2.222,2.556V5.489H5.356a.66.66,0,0,0-.556.666v4.334a.815.815,0,0,0,.528.726l.665.215a4.3,4.3,0,0,0,1.084.17H10.3a4.266,4.266,0,0,0,1.084-.17l.665-.215a.814.814,0,0,0,.53-.726V6.155a.763.763,0,0,0-.667-.666Zm-2.111,0H7.578V3.933A1.07,1.07,0,0,1,8.689,2.711,1.07,1.07,0,0,1,9.8,3.933V5.489Z" transform="translate(-4.8 -1.6)" fill="#cbcbcb"/></svg>