<svg xmlns="http://www.w3.org/2000/svg" viewBox="0 0 20 20" height="20px">
    <path d="M13.5.5h-7a1.95878,1.95878,0,0,0-2,2v15a1.95878,1.95878,0,0,0,2,2h7a1.95878,1.95878,0,0,0,2-2V2.5A1.95878,1.95878,0,0,0,13.5.5Zm1,14v2a.97939.97939,0,0,1-1,1h-7a.97939.97939,0,0,1-1-1V2.5a.97939.97939,0,0,1,1-1h7a.97939.97939,0,0,1,1,1Z" fill="#868686"/>
    <rect x="5.5" y="1.5" width="9" height="16" rx="2" ry="2" fill="#f4f4f4"/>
    <path d="M11.5,5.5l-.58685,1.17371A3.17216,3.17216,0,0,0,10,6.5s-2.5,0-2.5,3a3.00481,3.00481,0,0,0,.84326,2.31348L7.5,13.5h1l.60132-1.20258A2.69549,2.69549,0,0,0,10,12.5,2.44847,2.44847,0,0,0,12.5,10h-1A1.46908,1.46908,0,0,1,10,11.5a1.37915,1.37915,0,0,1-.46161-.07678l1.67206-3.344A1.83488,1.83488,0,0,1,11.5,9h1a2.31273,2.31273,0,0,0-.80139-1.89722L12.5,5.5Zm-3,4s0-2,1.5-2a1.80115,1.80115,0,0,1,.47034.05933L8.84021,10.8197A3.00492,3.00492,0,0,1,8.5,9.5Z" fill="#868686"/>
</svg>